<?xml version="1.0" encoding="UTF-8" ?>
<svg version="1.1" width="16" height="16" xmlns="http://www.w3.org/2000/svg" shape-rendering="crispEdges">
<rect x="6" y="1" width="1" height="1" fill="#0A0A0A" />
<rect x="7" y="1" width="1" height="1" fill="#0A0A0A" />
<rect x="8" y="1" width="1" height="1" fill="#0A0A0A" />
<rect x="9" y="1" width="1" height="1" fill="#0A0A0A" />
<rect x="1" y="2" width="1" height="1" fill="#0A0A0A" />
<rect x="2" y="2" width="1" height="1" fill="#0A0A0A" />
<rect x="4" y="2" width="1" height="1" fill="#0A0A0A" />
<rect x="5" y="2" width="1" height="1" fill="#0A0A0A" />
<rect x="6" y="2" width="1" height="1" fill="#FF17FB" />
<rect x="7" y="2" width="1" height="1" fill="#FF17FB" />
<rect x="8" y="2" width="1" height="1" fill="#FF17FB" />
<rect x="9" y="2" width="1" height="1" fill="#FF17FB" />
<rect x="10" y="2" width="1" height="1" fill="#0A0A0A" />
<rect x="11" y="2" width="1" height="1" fill="#0A0A0A" />
<rect x="1" y="3" width="1" height="1" fill="#0A0A0A" />
<rect x="2" y="3" width="1" height="1" fill="#3D3D3D" />
<rect x="3" y="3" width="1" height="1" fill="#0A0A0A" />
<rect x="4" y="3" width="1" height="1" fill="#FF32EB" />
<rect x="5" y="3" width="1" height="1" fill="#FF32EB" />
<rect x="6" y="3" width="1" height="1" fill="#FF32EB" />
<rect x="7" y="3" width="1" height="1" fill="#FF32EB" />
<rect x="8" y="3" width="1" height="1" fill="#FF32EB" />
<rect x="9" y="3" width="1" height="1" fill="#FF32EB" />
<rect x="10" y="3" width="1" height="1" fill="#FF32EB" />
<rect x="11" y="3" width="1" height="1" fill="#FF32EB" />
<rect x="12" y="3" width="1" height="1" fill="#0A0A0A" />
<rect x="2" y="4" width="1" height="1" fill="#0A0A0A" />
<rect x="3" y="4" width="1" height="1" fill="#3D3D3D" />
<rect x="4" y="4" width="1" height="1" fill="#3D3D3D" />
<rect x="5" y="4" width="1" height="1" fill="#E94DFF" />
<rect x="6" y="4" width="1" height="1" fill="#E94DFF" />
<rect x="7" y="4" width="1" height="1" fill="#F04DF9" />
<rect x="8" y="4" width="1" height="1" fill="#F74DF2" />
<rect x="9" y="4" width="1" height="1" fill="#FE4DEA" />
<rect x="10" y="4" width="1" height="1" fill="#FF4DE2" />
<rect x="11" y="4" width="1" height="1" fill="#FF4DDC" />
<rect x="12" y="4" width="1" height="1" fill="#FF4DD5" />
<rect x="13" y="4" width="1" height="1" fill="#0A0A0A" />
<rect x="2" y="5" width="1" height="1" fill="#0A0A0A" />
<rect x="3" y="5" width="1" height="1" fill="#643686" />
<rect x="4" y="5" width="1" height="1" fill="#3D3D3D" />
<rect x="5" y="5" width="1" height="1" fill="#3D3D3D" />
<rect x="6" y="5" width="1" height="1" fill="#3D3D3D" />
<rect x="7" y="5" width="1" height="1" fill="#E568F4" />
<rect x="8" y="5" width="1" height="1" fill="#E568F4" />
<rect x="9" y="5" width="1" height="1" fill="#FF68C0" />
<rect x="10" y="5" width="1" height="1" fill="#FF68C0" />
<rect x="11" y="5" width="1" height="1" fill="#FF68C9" />
<rect x="12" y="5" width="1" height="1" fill="#FF68C0" />
<rect x="13" y="5" width="1" height="1" fill="#0A0A0A" />
<rect x="1" y="6" width="1" height="1" fill="#0A0A0A" />
<rect x="2" y="6" width="1" height="1" fill="#9C83FF" />
<rect x="3" y="6" width="1" height="1" fill="#9C83FF" />
<rect x="4" y="6" width="1" height="1" fill="#5E4585" />
<rect x="5" y="6" width="1" height="1" fill="#3D3D3D" />
<rect x="6" y="6" width="1" height="1" fill="#3D3D3D" />
<rect x="7" y="6" width="1" height="1" fill="#3D3D3D" />
<rect x="8" y="6" width="1" height="1" fill="#FB83C3" />
<rect x="9" y="6" width="1" height="1" fill="#FB83C3" />
<rect x="10" y="6" width="1" height="1" fill="#FB83C3" />
<rect x="11" y="6" width="1" height="1" fill="#FF839D" />
<rect x="12" y="6" width="1" height="1" fill="#FF839D" />
<rect x="13" y="6" width="1" height="1" fill="#FF839D" />
<rect x="14" y="6" width="1" height="1" fill="#0A0A0A" />
<rect x="1" y="7" width="1" height="1" fill="#0A0A0A" />
<rect x="2" y="7" width="1" height="1" fill="#809EFF" />
<rect x="3" y="7" width="1" height="1" fill="#8E9EFF" />
<rect x="4" y="7" width="1" height="1" fill="#8E9EFF" />
<rect x="5" y="7" width="1" height="1" fill="#5E5690" />
<rect x="6" y="7" width="1" height="1" fill="#3D3D3D" />
<rect x="7" y="7" width="1" height="1" fill="#3D3D3D" />
<rect x="8" y="7" width="1" height="1" fill="#3D3D3D" />
<rect x="9" y="7" width="1" height="1" fill="#FF9E9D" />
<rect x="10" y="7" width="1" height="1" fill="#FF9E9D" />
<rect x="11" y="7" width="1" height="1" fill="#FF9E9D" />
<rect x="12" y="7" width="1" height="1" fill="#FF9E8F" />
<rect x="13" y="7" width="1" height="1" fill="#FF9E80" />
<rect x="14" y="7" width="1" height="1" fill="#0A0A0A" />
<rect x="1" y="8" width="1" height="1" fill="#0A0A0A" />
<rect x="2" y="8" width="1" height="1" fill="#5FB8FF" />
<rect x="3" y="8" width="1" height="1" fill="#71B8FF" />
<rect x="4" y="8" width="1" height="1" fill="#71B8FF" />
<rect x="5" y="8" width="1" height="1" fill="#71B8FF" />
<rect x="6" y="8" width="1" height="1" fill="#71B8FF" />
<rect x="7" y="8" width="1" height="1" fill="#3D3D3D" />
<rect x="8" y="8" width="1" height="1" fill="#BFBFBF" />
<rect x="9" y="8" width="1" height="1" fill="#DEDEDE" />
<rect x="10" y="8" width="1" height="1" fill="#F7B888" />
<rect x="11" y="8" width="1" height="1" fill="#F7B888" />
<rect x="12" y="8" width="1" height="1" fill="#FFB872" />
<rect x="13" y="8" width="1" height="1" fill="#FFB861" />
<rect x="14" y="8" width="1" height="1" fill="#0A0A0A" />
<rect x="1" y="9" width="1" height="1" fill="#0A0A0A" />
<rect x="2" y="9" width="1" height="1" fill="#3DD3FF" />
<rect x="3" y="9" width="1" height="1" fill="#51D0FE" />
<rect x="4" y="9" width="1" height="1" fill="#51D0FE" />
<rect x="5" y="9" width="1" height="1" fill="#77D3F2" />
<rect x="6" y="9" width="1" height="1" fill="#77D3F2" />
<rect x="7" y="9" width="1" height="1" fill="#77D3F2" />
<rect x="8" y="9" width="1" height="1" fill="#BFBFBF" />
<rect x="9" y="9" width="1" height="1" fill="#BFBFBF" />
<rect x="10" y="9" width="1" height="1" fill="#282828" />
<rect x="11" y="9" width="1" height="1" fill="#282828" />
<rect x="12" y="9" width="1" height="1" fill="#FFD33F" />
<rect x="13" y="9" width="1" height="1" fill="#FFD33F" />
<rect x="14" y="9" width="1" height="1" fill="#0A0A0A" />
<rect x="2" y="10" width="1" height="1" fill="#0A0A0A" />
<rect x="3" y="10" width="1" height="1" fill="#5AEEEE" />
<rect x="4" y="10" width="1" height="1" fill="#46DDF5" />
<rect x="5" y="10" width="1" height="1" fill="#5AEEEE" />
<rect x="6" y="10" width="1" height="1" fill="#5AEEEE" />
<rect x="7" y="10" width="1" height="1" fill="#9CF0B9" />
<rect x="8" y="10" width="1" height="1" fill="#9CF0B9" />
<rect x="9" y="10" width="1" height="1" fill="#64A5DE" />
<rect x="10" y="10" width="1" height="1" fill="#282828" />
<rect x="11" y="10" width="1" height="1" fill="#282828" />
<rect x="12" y="10" width="1" height="1" fill="#F2EE3C" />
<rect x="13" y="10" width="1" height="1" fill="#0A0A0A" />
<rect x="2" y="11" width="1" height="1" fill="#0A0A0A" />
<rect x="3" y="11" width="1" height="1" fill="#11FFFE" />
<rect x="4" y="11" width="1" height="1" fill="#46DDF5" />
<rect x="5" y="11" width="1" height="1" fill="#47DDEC" />
<rect x="6" y="11" width="1" height="1" fill="#56D0E3" />
<rect x="7" y="11" width="1" height="1" fill="#60C2DD" />
<rect x="8" y="11" width="1" height="1" fill="#63B5DA" />
<rect x="9" y="11" width="1" height="1" fill="#61A7DD" />
<rect x="10" y="11" width="1" height="1" fill="#5EA9FF" />
<rect x="11" y="11" width="1" height="1" fill="#282828" />
<rect x="12" y="11" width="1" height="1" fill="#E3FF2D" />
<rect x="13" y="11" width="1" height="1" fill="#0A0A0A" />
<rect x="3" y="12" width="1" height="1" fill="#0A0A0A" />
<rect x="4" y="12" width="1" height="1" fill="#1BFFF9" />
<rect x="5" y="12" width="1" height="1" fill="#32FFEE" />
<rect x="6" y="12" width="1" height="1" fill="#4FD0E4" />
<rect x="7" y="12" width="1" height="1" fill="#5AC2DE" />
<rect x="8" y="12" width="1" height="1" fill="#5FB5DC" />
<rect x="9" y="12" width="1" height="1" fill="#5FA7DD" />
<rect x="10" y="12" width="1" height="1" fill="#3E6FD7" />
<rect x="11" y="12" width="1" height="1" fill="#BEFF57" />
<rect x="12" y="12" width="1" height="1" fill="#0A0A0A" />
<rect x="4" y="13" width="1" height="1" fill="#0A0A0A" />
<rect x="5" y="13" width="1" height="1" fill="#0A0A0A" />
<rect x="6" y="13" width="1" height="1" fill="#53FFCF" />
<rect x="7" y="13" width="1" height="1" fill="#53FFCF" />
<rect x="8" y="13" width="1" height="1" fill="#82FF9D" />
<rect x="9" y="13" width="1" height="1" fill="#82FF9D" />
<rect x="10" y="13" width="1" height="1" fill="#0A0A0A" />
<rect x="11" y="13" width="1" height="1" fill="#0A0A0A" />
<rect x="6" y="14" width="1" height="1" fill="#0A0A0A" />
<rect x="7" y="14" width="1" height="1" fill="#0A0A0A" />
<rect x="8" y="14" width="1" height="1" fill="#0A0A0A" />
<rect x="9" y="14" width="1" height="1" fill="#0A0A0A" />
</svg>